<svg width="274" height="256" viewBox="0 0 274 256" fill="none" xmlns="http://www.w3.org/2000/svg">
<g opacity="0.5">
<rect x="-7.41797" y="0.5" width="280.841" height="255" fill="white" stroke="#740606"/>
<path d="M272.966 43.8545L252.029 43.8543C246.066 43.8543 240.128 44.6394 234.368 46.1893V46.1893C219.806 50.1075 206.954 58.7555 197.836 70.7717L196.654 72.329V72.329C188.889 81.9863 176.719 86.9921 164.419 85.5874L163.798 85.5165C160.766 85.1703 157.789 84.4521 154.933 83.3782L153.141 82.7041C145.073 79.6697 137.877 74.7008 132.182 68.2331L129.037 64.6608C121.738 56.3706 112.621 49.8802 102.397 45.6951L97.1716 43.5564C90.1055 40.6642 82.5438 39.1696 74.9047 39.1552V39.1552C61.6134 39.1303 48.6946 43.5845 38.2331 51.799L30.1608 58.1376L12.5885 72.1869C6.74918 76.8554 -0.502685 79.399 -7.97328 79.399V79.399" stroke="#740606" stroke-width="20"/>
<path d="M273.964 107.854L253.027 107.854C247.064 107.854 241.126 108.639 235.366 110.189V110.189C220.804 114.107 207.952 122.756 198.834 134.772L197.652 136.329V136.329C189.887 145.986 177.717 150.992 165.417 149.587L164.796 149.516C161.764 149.17 158.787 148.452 155.931 147.378L154.139 146.704C146.071 143.67 138.875 138.701 133.18 132.233L130.035 128.661C122.736 120.371 113.619 113.88 103.395 109.695L98.1697 107.556C91.1036 104.664 83.5419 103.17 75.9027 103.155V103.155C62.6114 103.13 49.6926 107.584 39.2311 115.799L31.1588 122.138L13.5865 136.187C7.74723 140.855 0.495362 143.399 -6.97523 143.399V143.399" stroke="#740606" stroke-width="20"/>
<path d="M273.964 171.854L253.027 171.854C247.064 171.854 241.126 172.639 235.366 174.189V174.189C220.804 178.107 207.952 186.756 198.834 198.772L197.652 200.329V200.329C189.887 209.986 177.717 214.992 165.417 213.587L164.796 213.516C161.764 213.17 158.787 212.452 155.931 211.378L154.139 210.704C146.071 207.67 138.875 202.701 133.18 196.233L130.035 192.661C122.736 184.371 113.619 177.88 103.395 173.695L98.1697 171.556C91.1036 168.664 83.5419 167.17 75.9027 167.155V167.155C62.6114 167.13 49.6926 171.584 39.2311 179.799L31.1588 186.138L13.5865 200.187C7.74723 204.855 0.495362 207.399 -6.97523 207.399V207.399" stroke="#740606" stroke-width="20"/>
</g>
</svg>
