<svg width="126" height="340" viewBox="0 0 126 340" fill="none" xmlns="http://www.w3.org/2000/svg">
<rect x="1.04297" width="124.885" height="340" fill="#1E4833"/>
<path d="M1 29.5H23.5L46.5 50.5L75 20L107 43H126" stroke="black" stroke-width="10"/>
<path d="M1 74H23.5L46.5 95L75 64.5L107 87.5H126" stroke="black" stroke-width="10"/>
<path d="M1 119H23.5L46.5 140L75 109.5L107 132.5H126" stroke="black" stroke-width="10"/>
<path d="M1 164H23.5L46.5 185L75 154.5L107 177.5H126" stroke="black" stroke-width="10"/>
<path d="M1 209H23.5L46.5 230L75 199.5L107 222.5H126" stroke="black" stroke-width="10"/>
<path d="M0 254H22.5L45.5 275L74 244.5L106 267.5H125" stroke="black" stroke-width="10"/>
<path d="M1 299H23.5L46.5 320L75 289.5L107 312.5H126" stroke="black" stroke-width="10"/>
</svg>
