<svg width="125" height="340" viewBox="0 0 125 340" fill="none" xmlns="http://www.w3.org/2000/svg">
<rect x="0.0429688" width="124.885" height="340" fill="#1E4833"/>
<path d="M123.967 26.1402L124.961 26.14V26.14C117.295 26.2047 110.018 29.556 104.977 35.3432L102.67 37.9923V37.9923C97.3986 43.7046 89.7542 46.6128 82.03 45.8444L80.5569 45.6978C78.5609 45.4992 76.5929 45.0841 74.6876 44.4598L73.6495 44.1196C68.1053 42.3029 63.0619 39.2221 58.9168 35.1203L49.841 26.139L46.5711 23.5068C40.7024 18.7828 33.2545 16.4659 25.7316 17.0243L24.7392 17.0979C19.6649 17.4745 14.8041 19.3087 10.7412 22.3799L6.52002 25.5708C4.66329 26.9743 2.40027 27.7339 0.0753124 27.734V27.734" stroke="black" stroke-width="10"/>
<path d="M123.967 72.4127L124.961 72.4125V72.4125C117.295 72.4772 110.018 75.8285 104.977 81.6157L102.67 84.2648V84.2648C97.3986 89.9771 89.7542 92.8853 82.03 92.1168L80.5569 91.9703C78.5609 91.7717 76.5929 91.3566 74.6876 90.7323L73.6495 90.3921C68.1053 88.5754 63.0619 85.4946 58.9168 81.3927L49.841 72.4115L46.5711 69.7793C40.7024 65.0552 33.2545 62.7384 25.7316 63.2967L24.7392 63.3704C19.6649 63.747 14.8041 65.5812 10.7412 68.6523L6.52002 71.8433C4.66329 73.2468 2.40027 74.0064 0.0753124 74.0065V74.0065" stroke="black" stroke-width="10"/>
<path d="M123.967 117.679L124.961 117.679V117.679C117.295 117.743 110.018 121.095 104.977 126.882L102.67 129.531V129.531C97.3986 135.243 89.7542 138.151 82.03 137.383L80.5569 137.236C78.5609 137.038 76.5929 136.623 74.6876 135.998L73.6495 135.658C68.1053 133.841 63.0619 130.761 58.9168 126.659L49.841 117.678L46.5711 115.045C40.7024 110.321 33.2545 108.005 25.7316 108.563L24.7392 108.636C19.6649 109.013 14.8041 110.847 10.7412 113.918L6.52002 117.109C4.66329 118.513 2.40027 119.273 0.0753124 119.273V119.273" stroke="black" stroke-width="10"/>
<path d="M123.967 302.768L124.961 302.767V302.767C117.295 302.832 110.018 306.183 104.977 311.971L102.67 314.62V314.62C97.3986 320.332 89.7542 323.24 82.03 322.472L80.5569 322.325C78.5609 322.127 76.5929 321.712 74.6876 321.087L73.6495 320.747C68.1053 318.93 63.0619 315.85 58.9168 311.748L49.841 302.766L46.5711 300.134C40.7024 295.41 33.2545 293.093 25.7316 293.652L24.7392 293.725C19.6649 294.102 14.8041 295.936 10.7412 299.007L6.52002 302.198C4.66329 303.602 2.40027 304.361 0.0753124 304.361V304.361" stroke="black" stroke-width="10"/>
<path d="M123.967 163.951L124.961 163.951V163.951C117.295 164.016 110.018 167.367 104.977 173.154L102.67 175.803V175.803C97.3986 181.516 89.7542 184.424 82.03 183.655L80.5569 183.509C78.5609 183.31 76.5929 182.895 74.6876 182.271L73.6495 181.931C68.1053 180.114 63.0619 177.033 58.9168 172.931L49.841 163.95L46.5711 161.318C40.7024 156.594 33.2545 154.277 25.7316 154.835L24.7392 154.909C19.6649 155.286 14.8041 157.12 10.7412 160.191L6.52002 163.382C4.66329 164.785 2.40027 165.545 0.0753124 165.545V165.545" stroke="black" stroke-width="10"/>
<path d="M123.967 210.223L124.961 210.223V210.223C117.295 210.288 110.018 213.639 104.977 219.426L102.67 222.075V222.075C97.3986 227.788 89.7542 230.696 82.03 229.927L80.5569 229.781C78.5609 229.582 76.5929 229.167 74.6876 228.543L73.6495 228.203C68.1053 226.386 63.0619 223.305 58.9168 219.203L49.841 210.222L46.5711 207.59C40.7024 202.866 33.2545 200.549 25.7316 201.107L24.7392 201.181C19.6649 201.558 14.8041 203.392 10.7412 206.463L6.52002 209.654C4.66329 211.057 2.40027 211.817 0.0753124 211.817V211.817" stroke="black" stroke-width="10"/>
<path d="M123.967 256.495L124.961 256.495V256.495C117.295 256.56 110.018 259.911 104.977 265.698L102.67 268.347V268.347C97.3986 274.06 89.7542 276.968 82.03 276.199L80.5569 276.053C78.5609 275.854 76.5929 275.439 74.6876 274.815L73.6495 274.475C68.1053 272.658 63.0619 269.577 58.9168 265.475L49.841 256.494L46.5711 253.862C40.7024 249.138 33.2545 246.821 25.7316 247.379L24.7392 247.453C19.6649 247.83 14.8041 249.664 10.7412 252.735L6.52002 255.926C4.66329 257.329 2.40027 258.089 0.0753124 258.089V258.089" stroke="black" stroke-width="10"/>
</svg>
