<svg width="279" height="256" viewBox="0 0 279 256" fill="none" xmlns="http://www.w3.org/2000/svg">
<g opacity="0.5">
<rect x="0.582031" y="0.5" width="280.841" height="255" fill="white" stroke="#740606"/>
<path d="M280.966 43.8545L260.029 43.8543C254.066 43.8543 248.128 44.6394 242.368 46.1893V46.1893C227.806 50.1075 214.954 58.7555 205.836 70.7717L204.654 72.329V72.329C196.889 81.9863 184.719 86.9921 172.419 85.5874L171.798 85.5165C168.766 85.1703 165.789 84.4521 162.933 83.3782L161.141 82.7041C153.073 79.6697 145.877 74.7008 140.182 68.2331L137.037 64.6608C129.738 56.3706 120.621 49.8802 110.397 45.6951L105.172 43.5564C98.1055 40.6642 90.5438 39.1696 82.9047 39.1552V39.1552C69.6134 39.1303 56.6946 43.5845 46.2331 51.799L38.1608 58.1376L20.5885 72.1869C14.7492 76.8554 7.49732 79.399 0.0267201 79.399V79.399" stroke="#740606" stroke-width="20"/>
<path d="M281.964 107.854L261.027 107.854C255.064 107.854 249.126 108.639 243.366 110.189V110.189C228.804 114.107 215.952 122.756 206.834 134.772L205.652 136.329V136.329C197.887 145.986 185.717 150.992 173.417 149.587L172.796 149.516C169.764 149.17 166.787 148.452 163.931 147.378L162.139 146.704C154.071 143.67 146.875 138.701 141.18 132.233L138.035 128.661C130.736 120.371 121.619 113.88 111.395 109.695L106.17 107.556C99.1036 104.664 91.5419 103.17 83.9027 103.155V103.155C70.6114 103.13 57.6926 107.584 47.2311 115.799L39.1588 122.138L21.5865 136.187C15.7472 140.855 8.49536 143.399 1.02477 143.399V143.399" stroke="#740606" stroke-width="20"/>
<path d="M281.964 171.854L261.027 171.854C255.064 171.854 249.126 172.639 243.366 174.189V174.189C228.804 178.107 215.952 186.756 206.834 198.772L205.652 200.329V200.329C197.887 209.986 185.717 214.992 173.417 213.587L172.796 213.516C169.764 213.17 166.787 212.452 163.931 211.378L162.139 210.704C154.071 207.67 146.875 202.701 141.18 196.233L138.035 192.661C130.736 184.371 121.619 177.88 111.395 173.695L106.17 171.556C99.1036 168.664 91.5419 167.17 83.9027 167.155V167.155C70.6114 167.13 57.6926 171.584 47.2311 179.799L39.1588 186.138L21.5865 200.187C15.7472 204.855 8.49536 207.399 1.02477 207.399V207.399" stroke="#740606" stroke-width="20"/>
</g>
</svg>
