<?xml version="1.0" encoding="UTF-8"?>
<svg xmlns="http://www.w3.org/2000/svg" version="1.1" viewBox="0 0 476 176.8">
  <defs>
    <style>
      .cls-1 {
        fill: #fff;
      }
    </style>
  </defs>
  <!-- Generator: Adobe Illustrator 28.6.0, SVG Export Plug-In . SVG Version: 1.2.0 Build 709)  -->
  <g>
    <g id="Layer_1">
      <g>
        <g>
          <path class="cls-1" d="M25-162.5h-8.8v37.4H3.3v-85.1h12.9v34.1h8.8v-34.1h12.9v85.2h-12.9v-37.5Z"/>
          <path class="cls-1" d="M60.1-124.1h-2.5c-10.3,0-15.8-5.6-15.8-16.1v-17.1h12.8v14.9c0,3.9,1.3,6,4.2,6s4.2-2.1,4.2-7.3v-1.9c0-6.1-.6-8.2-5.3-14.3l-8.1-10.7c-5.5-7.1-7.1-12.6-7.1-21.1v-2.7c0-11.3,5.7-16.6,15.9-16.6h2.4c10.6,0,14.8,4.7,14.8,14.8v14h-12.5v-12.3c0-2.9-.6-5-3.7-5s-3.8,1.9-3.8,6v1.6c0,4.8.9,7.4,5.3,13.1l8.2,10.6c5.8,7.6,7.7,11.9,7.7,21.5v2.7c0,12.5-5.4,19.9-16.7,19.9Z"/>
          <path class="cls-1" d="M109.9-210.2v12.4h-16.5v22.3h12.9v12.9h-12.9v24.6h17.2v12.9h-30.1v-85.1h29.4Z"/>
          <path class="cls-1" d="M145.5-141.1h-9.4l-1.7,16h-11.6l10.4-85.2h15.3l11.1,85.2h-12.5l-1.6-16ZM144.1-153.8l-3.4-31.5-3.3,31.5h6.7Z"/>
          <path class="cls-1" d="M174.7-125h-12.9v-85.2h21c8.6,0,12.9,3.7,12.9,13.2v15.1c0,7.1-3.3,9.8-5.6,10.9,2.9,1.3,5.6,3.6,5.6,9.3v29.9c0,3.4.7,5,1.3,6.3v.6h-12.8c-.6-.9-1.3-2.4-1.3-7v-25.8c0-3.8-.7-5.4-4.8-5.4h-3.3v38.1h0ZM174.7-175.2h3.4c3.6,0,4.7-2.3,4.7-6.1v-11.9c0-3.7-.8-5.5-4.7-5.5h-3.4v23.5Z"/>
          <path class="cls-1" d="M221.8-197.9v72.8h-12.8v-72.8h-10.9v-12.3h34.6v12.4h-10.9Z"/>
          <path class="cls-1" d="M267.3-141.1h-9.4l-1.7,16h-11.6l10.4-85.2h15.3l11.1,85.2h-12.5l-1.6-16ZM265.9-153.8l-3.4-31.5-3.3,31.5h6.7Z"/>
          <path class="cls-1" d="M295.2-210.2l11.1,45.7v-45.7h11.8v85.2h-10.5l-12.4-49v49h-11.7v-85.2h11.7Z"/>
          <path class="cls-1" d="M322.9-210.2h19.9c11.1,0,14.5,6.3,14.5,16.4v51.9c0,10.4-3.9,16.9-14.5,16.9h-19.8v-85.2h-.1ZM335.9-137.4h3.1c3.9,0,5-2.1,5-6.6v-48c0-4.9-1.3-6.6-4.5-6.6h-3.7v61.2h.1Z"/>
        </g>
        <g>
          <path class="cls-1" d="M3.3-120.6h19.8c11.1,0,14.5,6.3,14.5,16.4v51.9c0,10.4-3.9,16.9-14.5,16.9H3.3v-85.2ZM16.2-47.7h3.1c3.9,0,5-2.1,5-6.6v-48c0-4.9-1.3-6.6-4.5-6.6h-3.7v61.2h0Z"/>
          <path class="cls-1" d="M71.7-120.6v12.4h-16.5v22.3h12.9v12.9h-12.9v24.6h17.2v12.9h-30.2v-85.1h29.5Z"/>
          <path class="cls-1" d="M93-34.5h-2.5c-10.3,0-15.8-5.6-15.8-16.1v-17.1h12.8v14.9c0,3.9,1.3,6,4.2,6s4.2-2.1,4.2-7.3v-1.9c0-6.1-.6-8.2-5.3-14.3l-8.2-10.5c-5.5-7.1-7.1-12.6-7.1-21.1v-2.7c0-11.3,5.7-16.6,15.9-16.6h2.4c10.7,0,14.8,4.7,14.8,14.8v14h-12.5v-12.3c0-2.9-.6-5-3.7-5s-3.8,1.9-3.8,6v1.6c0,4.8.9,7.4,5.3,13.1l8.2,10.6c5.8,7.6,7.7,11.9,7.7,21.5v2.7c.1,12.3-5.3,19.7-16.6,19.7Z"/>
          <path class="cls-1" d="M126.3-35.4h-12.9v-85.2h12.9V-35.4Z"/>
          <path class="cls-1" d="M143.1-34.2c-7.6,0-12.4-6.8-12.4-15.6v-53.3c0-9.5,3.7-18.3,15.9-18.3h2.5c13.9,0,15.5,9,15.5,19.1v8.7h-12.6v-9.6c0-3.8-.9-5.8-4.1-5.8s-4,2.1-4,5.8v49.8c0,4,1.6,6.1,4.2,6.1s4.8-2.3,4.8-5.5v-21.3h-5.8v-13.1h18.1v51.8h-7.3c-.1-.5-1.1-4.7-2.2-8.4-.9,2.9-5.3,9.5-11.8,9.5h-.8q0,.1,0,.1Z"/>
          <path class="cls-1" d="M181.4-120.6l11.1,45.7v-45.7h11.8V-35.4h-10.5l-12.4-49v49h-11.7v-85.2h11.7Z"/>
          <path class="cls-1" d="M238.1-34.5h-2.5c-10.3,0-15.8-5.6-15.8-16.1v-17.1h12.8v14.9c0,3.9,1.3,6,4.2,6s4.2-2.1,4.2-7.3v-1.9c0-6.1-.6-8.2-5.3-14.3l-8.2-10.5c-5.5-7.1-7.1-12.6-7.1-21.1v-2.7c0-11.3,5.7-16.6,15.9-16.6h2.4c10.6,0,14.8,4.7,14.8,14.8v14h-12.5v-12.3c0-2.9-.6-5-3.7-5s-3.8,1.9-3.8,6v1.6c0,4.8.9,7.4,5.3,13.1l8.2,10.6c5.8,7.6,7.7,11.9,7.7,21.5v2.7c.1,12.3-5.3,19.7-16.6,19.7Z"/>
          <path class="cls-1" d="M279.6-52.7v-19.8h12.7v19.7c0,9.2-3,18.4-15.5,18.4h-2.9c-13.1,0-15.9-9.4-15.9-18v-52c0-8.7,3.8-17.1,15.5-17.1h3c14.2,0,15.8,9.4,15.8,17.7v15.2h-12.7v-15c0-3.7-1.1-5.6-4.4-5.6s-4,1.8-4,5.6v50.6c0,3.8,1.3,5.8,4.1,5.8,3.2.3,4.3-2,4.3-5.5Z"/>
          <path class="cls-1" d="M318.2-72.8h-8.8v37.4h-12.9v-85.2h12.9v34.1h8.8v-34.1h12.9V-35.4h-12.9v-37.4Z"/>
          <path class="cls-1" d="M371-54.4c0,11.9-4,20-16.5,20h-2.2c-12.4,0-16.7-8.1-16.7-20v-47.4c0-11.8,4.5-19.6,16.6-19.6h2.2c12.6,0,16.6,7.8,16.6,19.5v47.5ZM357.8-102.5c0-4.5-1.5-6.5-4.5-6.5s-4.6,2.2-4.6,6.5v49c0,3.7,1,6.5,4.7,6.5s4.4-2.9,4.4-6.5v-49Z"/>
          <path class="cls-1" d="M410.5-54.4c0,11.9-4,20-16.5,20h-2.2c-12.4,0-16.7-8.1-16.7-20v-47.4c0-11.8,4.5-19.6,16.6-19.6h2.2c12.6,0,16.6,7.8,16.6,19.5v47.5ZM397.3-102.5c0-4.5-1.5-6.5-4.5-6.5s-4.6,2.2-4.6,6.5v49c0,3.7,1,6.5,4.7,6.5s4.4-2.9,4.4-6.5v-49Z"/>
          <path class="cls-1" d="M427.9-120.6V-48.6h15.8v13.2h-28.7v-85.2h12.9Z"/>
        </g>
      </g>
    </g>
  </g>
</svg>