<svg width="426" height="424" viewBox="0 0 426 424" fill="none" xmlns="http://www.w3.org/2000/svg">
<rect width="424.635" height="424" transform="matrix(-1 0 0 1 424.637 0)" fill="black"/>
<path d="M425.5 353.5V353.5C413.338 353.5 401.678 358.348 393.1 366.97L390.26 369.826C385.588 374.522 379.74 377.877 373.327 379.54V379.54C355.663 384.119 337.299 375.126 330.087 358.363L324.123 344.5L318.123 334.5L317.937 334.202C307.791 317.906 289.954 308 270.757 308V308C265.692 308 260.65 308.693 255.772 310.058L251.313 311.307C242.681 313.724 234.865 318.434 228.696 324.937V324.937C222.75 331.204 218.544 338.914 216.493 347.305L214.123 357L211.102 366.295C208.822 373.31 204.752 379.61 199.294 384.572V384.572C193.936 389.443 187.42 392.861 180.367 394.501L178.81 394.863C172.757 396.271 166.471 396.357 160.381 395.114V395.114C150.52 393.101 141.67 387.709 135.359 379.869L135.082 379.525C130.833 374.245 127.847 368.063 126.354 361.451L124.389 352.75C122.561 344.654 119.24 336.97 114.597 330.091L113.602 328.617C109.976 323.246 105.454 318.538 100.233 314.699L98.7302 313.593C93.7085 309.901 88.0053 307.24 81.9497 305.763L79.8648 305.254C73.7948 303.774 67.4558 303.792 61.3944 305.307V305.307C54.3567 307.067 47.9589 310.777 42.9374 316.013L41.1457 317.881C32.1876 327.22 19.8067 332.5 6.86563 332.5H1.12305" stroke="white" stroke-width="40"/>
<path d="M425.377 230.5V230.5C413.215 230.5 401.555 235.348 392.977 243.97L390.137 246.826C385.465 251.522 379.617 254.877 373.204 256.54V256.54C355.54 261.119 337.176 252.126 329.964 235.363L324 221.5L318 211.5L317.814 211.202C307.668 194.906 289.831 185 270.634 185V185C265.568 185 260.527 185.693 255.649 187.058L251.19 188.307C242.558 190.724 234.742 195.434 228.573 201.937V201.937C222.627 208.204 218.421 215.914 216.37 224.305L214 234L210.979 243.295C208.699 250.31 204.629 256.61 199.171 261.572V261.572C193.813 266.443 187.297 269.861 180.244 271.501L178.687 271.863C172.634 273.271 166.348 273.357 160.258 272.114V272.114C150.396 270.101 141.547 264.709 135.236 256.869L134.959 256.525C130.709 251.245 127.724 245.063 126.231 238.451L124.266 229.75C122.438 221.654 119.117 213.97 114.474 207.091L113.479 205.617C109.853 200.246 105.331 195.538 100.11 191.699L98.6071 190.593C93.5854 186.901 87.8823 184.24 81.8267 182.763L79.7417 182.254C73.6718 180.774 67.3327 180.792 61.2714 182.307V182.307C54.2337 184.067 47.8359 187.777 42.8143 193.013L41.0227 194.881C32.0645 204.22 19.6837 209.5 6.74258 209.5H1" stroke="white" stroke-width="40"/>
<path d="M424.377 107.5V107.5C412.215 107.5 400.555 112.348 391.977 120.97L389.137 123.826C384.465 128.522 378.617 131.877 372.204 133.54V133.54C354.54 138.119 336.176 129.126 328.964 112.363L323 98.5L317 88.5L316.814 88.2019C306.668 71.9062 288.831 62 269.634 62V62C264.568 62 259.527 62.6925 254.649 64.0584L250.19 65.3068C241.558 67.7237 233.742 72.4339 227.573 78.9369V78.9369C221.627 85.2036 217.421 92.9139 215.37 101.305L213 111L209.979 120.295C207.699 127.31 203.629 133.61 198.171 138.572V138.572C192.813 143.443 186.297 146.861 179.244 148.501L177.687 148.863C171.634 150.271 165.348 150.357 159.258 149.114V149.114C149.396 147.101 140.547 141.709 134.236 133.869L133.959 133.525C129.709 128.245 126.724 122.063 125.231 115.451L123.266 106.75C121.438 98.6544 118.117 90.9699 113.474 84.0906L112.479 82.6171C108.853 77.2457 104.331 72.5376 99.1101 68.6986L97.6071 67.5935C92.5854 63.9011 86.8823 61.2396 80.8267 59.7626L78.7417 59.2541C72.6718 57.7736 66.3327 57.7918 60.2714 59.3072V59.3072C53.2337 61.0666 46.8359 64.7775 41.8143 70.0127L40.0227 71.8806C31.0645 81.2199 18.6837 86.5 5.74258 86.5H0" stroke="white" stroke-width="40"/>
</svg>
