<svg width="426" height="424" viewBox="0 0 426 424" fill="none" xmlns="http://www.w3.org/2000/svg">
<rect width="424.635" height="424" transform="matrix(-1 0 0 1 424.636 0)" fill="black"/>
<path d="M424.5 96V96C415.248 96 406.409 99.8269 400.077 106.573L385.318 122.3C381.498 126.371 376.738 129.445 371.456 131.252V131.252C354.553 137.035 336.048 128.827 328.988 112.417L323 98.5L317 88.5L316.814 88.2019C306.668 71.9062 288.831 62 269.634 62V62C264.568 62 259.527 62.6925 254.649 64.0584L250.19 65.3068C241.558 67.7237 233.742 72.4339 227.573 78.9369V78.9369C221.627 85.2036 217.421 92.9139 215.37 101.305L213 111L209.979 120.295C207.699 127.31 203.629 133.61 198.171 138.572V138.572C192.813 143.443 186.297 146.861 179.244 148.501L177.687 148.863C171.634 150.271 165.348 150.357 159.258 149.114V149.114C149.396 147.101 140.547 141.709 134.236 133.869L133.959 133.525C129.709 128.245 126.724 122.063 125.231 115.451L123.266 106.75C121.438 98.6544 118.117 90.9699 113.474 84.0906L112.479 82.6171C108.853 77.2457 104.331 72.5376 99.1101 68.6986L97.6071 67.5935C92.5854 63.9011 86.8823 61.2396 80.8267 59.7626L78.7417 59.2541C72.6718 57.7736 66.3327 57.7918 60.2714 59.3072V59.3072C53.2337 61.0666 46.8359 64.7775 41.8143 70.0127L40.0227 71.8806C31.0645 81.2199 18.6837 86.5 5.74258 86.5H0" stroke="white" stroke-width="40"/>
<path d="M425.5 218V218C416.248 218 407.409 221.827 401.077 228.573L386.318 244.3C382.498 248.371 377.738 251.445 372.456 253.252V253.252C355.553 259.035 337.048 250.827 329.988 234.417L324 220.5L318 210.5L317.814 210.202C307.668 193.906 289.831 184 270.634 184V184C265.568 184 260.527 184.693 255.649 186.058L251.19 187.307C242.558 189.724 234.742 194.434 228.573 200.937V200.937C222.627 207.204 218.421 214.914 216.37 223.305L214 233L210.979 242.295C208.699 249.31 204.629 255.61 199.171 260.572V260.572C193.813 265.443 187.297 268.861 180.244 270.501L178.687 270.863C172.634 272.271 166.348 272.357 160.258 271.114V271.114C150.396 269.101 141.547 263.709 135.236 255.869L134.959 255.525C130.709 250.245 127.724 244.063 126.231 237.451L124.266 228.75C122.438 220.654 119.117 212.97 114.474 206.091L113.479 204.617C109.853 199.246 105.331 194.538 100.11 190.699L98.6071 189.593C93.5854 185.901 87.8823 183.24 81.8267 181.763L79.7417 181.254C73.6718 179.774 67.3327 179.792 61.2714 181.307V181.307C54.2337 183.067 47.8359 186.777 42.8143 192.013L41.0227 193.881C32.0645 203.22 19.6837 208.5 6.74258 208.5H1" stroke="white" stroke-width="40"/>
<path d="M424.5 340V340C415.248 340 406.409 343.827 400.077 350.573L385.318 366.3C381.498 370.371 376.738 373.445 371.456 375.252V375.252C354.553 381.035 336.048 372.827 328.988 356.417L323 342.5L317 332.5L316.814 332.202C306.668 315.906 288.831 306 269.634 306V306C264.568 306 259.527 306.693 254.649 308.058L250.19 309.307C241.558 311.724 233.742 316.434 227.573 322.937V322.937C221.627 329.204 217.421 336.914 215.37 345.305L213 355L209.979 364.295C207.699 371.31 203.629 377.61 198.171 382.572V382.572C192.813 387.443 186.297 390.861 179.244 392.501L177.687 392.863C171.634 394.271 165.348 394.357 159.258 393.114V393.114C149.396 391.101 140.547 385.709 134.236 377.869L133.959 377.525C129.709 372.245 126.724 366.063 125.231 359.451L123.266 350.75C121.438 342.654 118.117 334.97 113.474 328.091L112.479 326.617C108.853 321.246 104.331 316.538 99.1101 312.699L97.6071 311.593C92.5854 307.901 86.8823 305.24 80.8267 303.763L78.7417 303.254C72.6718 301.774 66.3327 301.792 60.2714 303.307V303.307C53.2337 305.067 46.8359 308.777 41.8143 314.013L40.0227 315.881C31.0645 325.22 18.6837 330.5 5.74258 330.5H0" stroke="white" stroke-width="40"/>
</svg>
