<svg width="128" height="300" viewBox="0 0 128 300" fill="none" xmlns="http://www.w3.org/2000/svg">
<rect x="0.0449219" width="127.882" height="300" fill="#740606"/>
<path d="M126.942 23.0648L127.96 23.0647V23.0647C120.046 23.1222 112.46 26.2758 106.824 31.8504L105.134 33.5226V33.5226C99.6771 38.618 92.3209 41.1642 84.8957 40.5277L82.4297 40.3163C80.4246 40.1444 78.4409 39.7828 76.5053 39.2363L75.5843 38.9762C69.7862 37.3391 64.4133 34.4695 59.8322 30.5632L51.0372 23.0637L48.148 21.0598C41.7939 16.6525 34.1313 14.5236 26.4011 15.018L24.9792 15.1089C19.9929 15.4278 15.1698 17.0302 10.978 19.7606L6.82518 22.4655C4.81608 23.7742 2.47138 24.471 0.0771149 24.4711V24.4711" stroke="black" stroke-width="10"/>
<path d="M126.942 63.8934L127.96 63.8933V63.8933C120.046 63.9508 112.46 67.1044 106.824 72.679L105.134 74.3512V74.3512C99.6771 79.4466 92.3209 81.9928 84.8957 81.3563L82.4297 81.1449C80.4246 80.973 78.4409 80.6114 76.5053 80.0649L75.5843 79.8048C69.7862 78.1677 64.4133 75.2981 59.8322 71.3918L51.0372 63.8923L48.148 61.8884C41.7939 57.4811 34.1313 55.3523 26.4011 55.8466L24.9792 55.9376C19.9929 56.2564 15.1698 57.8588 10.978 60.5892L6.82518 63.2941C4.81608 64.6028 2.47138 65.2997 0.0771149 65.2997V65.2997" stroke="black" stroke-width="10"/>
<path d="M126.942 103.834L127.96 103.834V103.834C120.046 103.892 112.46 107.045 106.824 112.62L105.134 114.292V114.292C99.6771 119.388 92.3209 121.934 84.8957 121.297L82.4297 121.086C80.4246 120.914 78.4409 120.552 76.5053 120.006L75.5843 119.746C69.7862 118.109 64.4133 115.239 59.8322 111.333L51.0372 103.833L48.148 101.829C41.7939 97.422 34.1313 95.2932 26.4011 95.7875L24.9792 95.8785C19.9929 96.1973 15.1698 97.7998 10.978 100.53L6.82518 103.235C4.81608 104.544 2.47138 105.241 0.0771149 105.241V105.241" stroke="black" stroke-width="10"/>
<path d="M126.942 267.148L127.96 267.148V267.148C120.046 267.205 112.46 270.359 106.824 275.933L105.134 277.606V277.606C99.6771 282.701 92.3209 285.247 84.8957 284.611L82.4297 284.399C80.4246 284.227 78.4409 283.866 76.5053 283.319L75.5843 283.059C69.7862 281.422 64.4133 278.552 59.8322 274.646L51.0372 267.147L48.148 265.143C41.7939 260.735 34.1313 258.607 26.4011 259.101L24.9792 259.192C19.9929 259.511 15.1698 261.113 10.978 263.844L6.82518 266.549C4.81608 267.857 2.47138 268.554 0.0771149 268.554V268.554" stroke="black" stroke-width="10"/>
<path d="M126.942 144.663L127.96 144.663V144.663C120.046 144.72 112.46 147.874 106.824 153.449L105.134 155.121V155.121C99.6771 160.216 92.3209 162.762 84.8957 162.126L82.4297 161.914C80.4246 161.743 78.4409 161.381 76.5053 160.834L75.5843 160.574C69.7862 158.937 64.4133 156.068 59.8322 152.161L51.0372 144.662L48.148 142.658C41.7939 138.251 34.1313 136.122 26.4011 136.616L24.9792 136.707C19.9929 137.026 15.1698 138.628 10.978 141.359L6.82518 144.064C4.81608 145.372 2.47138 146.069 0.0771149 146.069V146.069" stroke="black" stroke-width="10"/>
<path d="M126.942 185.491L127.96 185.491V185.491C120.046 185.548 112.46 188.702 106.824 194.277L105.134 195.949V195.949C99.6771 201.044 92.3209 203.59 84.8957 202.954L82.4297 202.743C80.4246 202.571 78.4409 202.209 76.5053 201.663L75.5843 201.402C69.7862 199.765 64.4133 196.896 59.8322 192.989L51.0372 185.49L48.148 183.486C41.7939 179.079 34.1313 176.95 26.4011 177.444L24.9792 177.535C19.9929 177.854 15.1698 179.456 10.978 182.187L6.82518 184.892C4.81608 186.2 2.47138 186.897 0.0771149 186.897V186.897" stroke="black" stroke-width="10"/>
<path d="M126.942 226.319L127.96 226.319V226.319C120.046 226.377 112.46 229.53 106.824 235.105L105.134 236.777V236.777C99.6771 241.872 92.3209 244.419 84.8957 243.782L82.4297 243.571C80.4246 243.399 78.4409 243.037 76.5053 242.491L75.5843 242.231C69.7862 240.593 64.4133 237.724 59.8322 233.818L51.0372 226.318L48.148 224.314C41.7939 219.907 34.1313 217.778 26.4011 218.272L24.9792 218.363C19.9929 218.682 15.1698 220.285 10.978 223.015L6.82518 225.72C4.81608 227.029 2.47138 227.725 0.0771149 227.726V227.726" stroke="black" stroke-width="10"/>
</svg>
